<mxfile host="app.diagrams.net" modified="2023-09-28T13:42:30.480Z" agent="Mozilla/5.0 (Windows NT 10.0; Win64; x64) AppleWebKit/537.36 (KHTML, like Gecko) Chrome/117.0.0.0 Safari/537.36" etag="0_DX3JM0qP23xVzqH8Xy" version="21.8.2" type="device">
  <diagram id="C5RBs43oDa-KdzZeNtuy" name="Page-1">
    <mxGraphModel dx="2607" dy="1655" grid="1" gridSize="10" guides="1" tooltips="1" connect="1" arrows="1" fold="1" page="1" pageScale="1" pageWidth="1000" pageHeight="1280" math="0" shadow="0">
      <root>
        <mxCell id="WIyWlLk6GJQsqaUBKTNV-0" />
        <mxCell id="WIyWlLk6GJQsqaUBKTNV-1" parent="WIyWlLk6GJQsqaUBKTNV-0" />
        <mxCell id="dbuAHaYB5niVqohsDz_a-2" style="edgeStyle=orthogonalEdgeStyle;rounded=0;orthogonalLoop=1;jettySize=auto;html=1;exitX=0.5;exitY=1;exitDx=0;exitDy=0;entryX=0.5;entryY=0;entryDx=0;entryDy=0;" parent="WIyWlLk6GJQsqaUBKTNV-1" source="dbuAHaYB5niVqohsDz_a-0" target="dbuAHaYB5niVqohsDz_a-1" edge="1">
          <mxGeometry relative="1" as="geometry" />
        </mxCell>
        <mxCell id="dbuAHaYB5niVqohsDz_a-0" value="Начало" style="ellipse;whiteSpace=wrap;html=1;" parent="WIyWlLk6GJQsqaUBKTNV-1" vertex="1">
          <mxGeometry x="80" y="40" width="120" height="80" as="geometry" />
        </mxCell>
        <mxCell id="dbuAHaYB5niVqohsDz_a-4" style="edgeStyle=orthogonalEdgeStyle;rounded=0;orthogonalLoop=1;jettySize=auto;html=1;exitX=0.5;exitY=1;exitDx=0;exitDy=0;entryX=0.5;entryY=0;entryDx=0;entryDy=0;" parent="WIyWlLk6GJQsqaUBKTNV-1" source="dbuAHaYB5niVqohsDz_a-1" target="dbuAHaYB5niVqohsDz_a-3" edge="1">
          <mxGeometry relative="1" as="geometry" />
        </mxCell>
        <mxCell id="dbuAHaYB5niVqohsDz_a-1" value="Ввести массив чисел" style="shape=parallelogram;perimeter=parallelogramPerimeter;whiteSpace=wrap;html=1;fixedSize=1;" parent="WIyWlLk6GJQsqaUBKTNV-1" vertex="1">
          <mxGeometry x="80" y="160" width="120" height="60" as="geometry" />
        </mxCell>
        <mxCell id="dbuAHaYB5niVqohsDz_a-6" style="edgeStyle=orthogonalEdgeStyle;rounded=0;orthogonalLoop=1;jettySize=auto;html=1;exitX=0.5;exitY=1;exitDx=0;exitDy=0;entryX=0.5;entryY=0;entryDx=0;entryDy=0;" parent="WIyWlLk6GJQsqaUBKTNV-1" source="dbuAHaYB5niVqohsDz_a-3" target="dbuAHaYB5niVqohsDz_a-5" edge="1">
          <mxGeometry relative="1" as="geometry" />
        </mxCell>
        <mxCell id="dbuAHaYB5niVqohsDz_a-3" value="Переменная левой границы&amp;nbsp; выборки&lt;br&gt;left = индекс первой ячейки массива" style="rounded=0;whiteSpace=wrap;html=1;" parent="WIyWlLk6GJQsqaUBKTNV-1" vertex="1">
          <mxGeometry x="80" y="260" width="120" height="60" as="geometry" />
        </mxCell>
        <mxCell id="dbuAHaYB5niVqohsDz_a-8" style="edgeStyle=orthogonalEdgeStyle;rounded=0;orthogonalLoop=1;jettySize=auto;html=1;exitX=0.5;exitY=1;exitDx=0;exitDy=0;entryX=0.5;entryY=0;entryDx=0;entryDy=0;" parent="WIyWlLk6GJQsqaUBKTNV-1" source="dbuAHaYB5niVqohsDz_a-5" target="dbuAHaYB5niVqohsDz_a-7" edge="1">
          <mxGeometry relative="1" as="geometry" />
        </mxCell>
        <mxCell id="dbuAHaYB5niVqohsDz_a-5" value="Переменная правой границы&amp;nbsp; выборки&lt;br&gt;right = индекс последней ячейки массива" style="rounded=0;whiteSpace=wrap;html=1;" parent="WIyWlLk6GJQsqaUBKTNV-1" vertex="1">
          <mxGeometry x="80" y="360" width="120" height="70" as="geometry" />
        </mxCell>
        <mxCell id="dbuAHaYB5niVqohsDz_a-10" style="edgeStyle=orthogonalEdgeStyle;rounded=0;orthogonalLoop=1;jettySize=auto;html=1;exitX=1;exitY=0.5;exitDx=0;exitDy=0;entryX=0.5;entryY=0;entryDx=0;entryDy=0;" parent="WIyWlLk6GJQsqaUBKTNV-1" source="dbuAHaYB5niVqohsDz_a-7" target="dbuAHaYB5niVqohsDz_a-9" edge="1">
          <mxGeometry relative="1" as="geometry">
            <Array as="points">
              <mxPoint x="240" y="505" />
              <mxPoint x="240" y="80" />
              <mxPoint x="420" y="80" />
            </Array>
          </mxGeometry>
        </mxCell>
        <mxCell id="dbuAHaYB5niVqohsDz_a-7" value="Флаг об индикации перемещения содержимого массива&lt;br&gt;hasSorted = true" style="rounded=0;whiteSpace=wrap;html=1;" parent="WIyWlLk6GJQsqaUBKTNV-1" vertex="1">
          <mxGeometry x="80" y="470" width="120" height="70" as="geometry" />
        </mxCell>
        <mxCell id="dbuAHaYB5niVqohsDz_a-35" style="edgeStyle=orthogonalEdgeStyle;rounded=0;orthogonalLoop=1;jettySize=auto;html=1;exitX=0.5;exitY=1;exitDx=0;exitDy=0;entryX=0.5;entryY=0;entryDx=0;entryDy=0;" parent="WIyWlLk6GJQsqaUBKTNV-1" source="dbuAHaYB5niVqohsDz_a-9" target="dbuAHaYB5niVqohsDz_a-17" edge="1">
          <mxGeometry relative="1" as="geometry" />
        </mxCell>
        <mxCell id="dbuAHaYB5niVqohsDz_a-36" value="да" style="edgeLabel;html=1;align=center;verticalAlign=middle;resizable=0;points=[];" parent="dbuAHaYB5niVqohsDz_a-35" vertex="1" connectable="0">
          <mxGeometry x="-0.15" y="1" relative="1" as="geometry">
            <mxPoint as="offset" />
          </mxGeometry>
        </mxCell>
        <mxCell id="dbuAHaYB5niVqohsDz_a-44" style="edgeStyle=orthogonalEdgeStyle;rounded=0;orthogonalLoop=1;jettySize=auto;html=1;exitX=0;exitY=0.5;exitDx=0;exitDy=0;entryX=0.5;entryY=0;entryDx=0;entryDy=0;" parent="WIyWlLk6GJQsqaUBKTNV-1" source="dbuAHaYB5niVqohsDz_a-9" target="dbuAHaYB5niVqohsDz_a-43" edge="1">
          <mxGeometry relative="1" as="geometry">
            <Array as="points">
              <mxPoint x="280" y="190" />
              <mxPoint x="280" y="1120" />
              <mxPoint x="420" y="1120" />
            </Array>
          </mxGeometry>
        </mxCell>
        <mxCell id="dbuAHaYB5niVqohsDz_a-45" value="нет" style="edgeLabel;html=1;align=center;verticalAlign=middle;resizable=0;points=[];" parent="dbuAHaYB5niVqohsDz_a-44" vertex="1" connectable="0">
          <mxGeometry x="-0.9455" y="4" relative="1" as="geometry">
            <mxPoint y="-4" as="offset" />
          </mxGeometry>
        </mxCell>
        <mxCell id="dbuAHaYB5niVqohsDz_a-9" value="left &amp;lt; right &amp;amp;&amp;amp;&amp;nbsp;&amp;nbsp;&lt;br&gt;hasSorted == true?" style="rhombus;whiteSpace=wrap;html=1;" parent="WIyWlLk6GJQsqaUBKTNV-1" vertex="1">
          <mxGeometry x="345" y="150" width="150" height="80" as="geometry" />
        </mxCell>
        <mxCell id="dbuAHaYB5niVqohsDz_a-14" style="edgeStyle=orthogonalEdgeStyle;rounded=0;orthogonalLoop=1;jettySize=auto;html=1;exitX=0.5;exitY=1;exitDx=0;exitDy=0;entryX=0.5;entryY=0;entryDx=0;entryDy=0;" parent="WIyWlLk6GJQsqaUBKTNV-1" source="dbuAHaYB5niVqohsDz_a-11" target="dbuAHaYB5niVqohsDz_a-12" edge="1">
          <mxGeometry relative="1" as="geometry" />
        </mxCell>
        <mxCell id="dbuAHaYB5niVqohsDz_a-11" value="Создаем переменную i" style="rounded=0;whiteSpace=wrap;html=1;" parent="WIyWlLk6GJQsqaUBKTNV-1" vertex="1">
          <mxGeometry x="360" y="370" width="120" height="60" as="geometry" />
        </mxCell>
        <mxCell id="dbuAHaYB5niVqohsDz_a-15" style="edgeStyle=orthogonalEdgeStyle;rounded=0;orthogonalLoop=1;jettySize=auto;html=1;exitX=0.5;exitY=1;exitDx=0;exitDy=0;entryX=0.5;entryY=0;entryDx=0;entryDy=0;" parent="WIyWlLk6GJQsqaUBKTNV-1" source="dbuAHaYB5niVqohsDz_a-12" target="dbuAHaYB5niVqohsDz_a-13" edge="1">
          <mxGeometry relative="1" as="geometry" />
        </mxCell>
        <mxCell id="dbuAHaYB5niVqohsDz_a-12" value="i = left" style="rounded=0;whiteSpace=wrap;html=1;" parent="WIyWlLk6GJQsqaUBKTNV-1" vertex="1">
          <mxGeometry x="360" y="470" width="120" height="60" as="geometry" />
        </mxCell>
        <mxCell id="dbuAHaYB5niVqohsDz_a-37" style="edgeStyle=orthogonalEdgeStyle;rounded=0;orthogonalLoop=1;jettySize=auto;html=1;exitX=0.5;exitY=1;exitDx=0;exitDy=0;entryX=0.5;entryY=0;entryDx=0;entryDy=0;" parent="WIyWlLk6GJQsqaUBKTNV-1" source="dbuAHaYB5niVqohsDz_a-13" target="dbuAHaYB5niVqohsDz_a-19" edge="1">
          <mxGeometry relative="1" as="geometry" />
        </mxCell>
        <mxCell id="dbuAHaYB5niVqohsDz_a-38" value="да" style="edgeLabel;html=1;align=center;verticalAlign=middle;resizable=0;points=[];" parent="dbuAHaYB5niVqohsDz_a-37" vertex="1" connectable="0">
          <mxGeometry x="-0.275" y="1" relative="1" as="geometry">
            <mxPoint as="offset" />
          </mxGeometry>
        </mxCell>
        <mxCell id="dbuAHaYB5niVqohsDz_a-46" style="edgeStyle=orthogonalEdgeStyle;rounded=0;orthogonalLoop=1;jettySize=auto;html=1;exitX=1;exitY=0.5;exitDx=0;exitDy=0;entryX=0.5;entryY=0;entryDx=0;entryDy=0;" parent="WIyWlLk6GJQsqaUBKTNV-1" source="dbuAHaYB5niVqohsDz_a-13" target="dbuAHaYB5niVqohsDz_a-42" edge="1">
          <mxGeometry relative="1" as="geometry">
            <Array as="points">
              <mxPoint x="520" y="610" />
              <mxPoint x="520" y="120" />
              <mxPoint x="700" y="120" />
            </Array>
          </mxGeometry>
        </mxCell>
        <mxCell id="dbuAHaYB5niVqohsDz_a-47" value="нет" style="edgeLabel;html=1;align=center;verticalAlign=middle;resizable=0;points=[];" parent="dbuAHaYB5niVqohsDz_a-46" vertex="1" connectable="0">
          <mxGeometry x="-0.9433" y="-1" relative="1" as="geometry">
            <mxPoint x="-1" y="-1" as="offset" />
          </mxGeometry>
        </mxCell>
        <mxCell id="dbuAHaYB5niVqohsDz_a-13" value="i &amp;lt; right?" style="rhombus;whiteSpace=wrap;html=1;" parent="WIyWlLk6GJQsqaUBKTNV-1" vertex="1">
          <mxGeometry x="360" y="570" width="120" height="80" as="geometry" />
        </mxCell>
        <mxCell id="dbuAHaYB5niVqohsDz_a-22" style="edgeStyle=orthogonalEdgeStyle;rounded=0;orthogonalLoop=1;jettySize=auto;html=1;exitX=0.5;exitY=1;exitDx=0;exitDy=0;entryX=0.5;entryY=0;entryDx=0;entryDy=0;" parent="WIyWlLk6GJQsqaUBKTNV-1" source="dbuAHaYB5niVqohsDz_a-17" target="dbuAHaYB5niVqohsDz_a-11" edge="1">
          <mxGeometry relative="1" as="geometry" />
        </mxCell>
        <mxCell id="dbuAHaYB5niVqohsDz_a-17" value="hasSorted&amp;nbsp;= false" style="rounded=0;whiteSpace=wrap;html=1;" parent="WIyWlLk6GJQsqaUBKTNV-1" vertex="1">
          <mxGeometry x="360" y="270" width="120" height="60" as="geometry" />
        </mxCell>
        <mxCell id="dbuAHaYB5niVqohsDz_a-29" style="edgeStyle=orthogonalEdgeStyle;rounded=0;orthogonalLoop=1;jettySize=auto;html=1;exitX=0.5;exitY=1;exitDx=0;exitDy=0;entryX=0.5;entryY=0;entryDx=0;entryDy=0;" parent="WIyWlLk6GJQsqaUBKTNV-1" source="dbuAHaYB5niVqohsDz_a-19" target="dbuAHaYB5niVqohsDz_a-26" edge="1">
          <mxGeometry relative="1" as="geometry" />
        </mxCell>
        <mxCell id="dbuAHaYB5niVqohsDz_a-30" value="да" style="edgeLabel;html=1;align=center;verticalAlign=middle;resizable=0;points=[];" parent="dbuAHaYB5niVqohsDz_a-29" vertex="1" connectable="0">
          <mxGeometry x="-0.2333" relative="1" as="geometry">
            <mxPoint as="offset" />
          </mxGeometry>
        </mxCell>
        <mxCell id="dbuAHaYB5niVqohsDz_a-73" style="edgeStyle=orthogonalEdgeStyle;rounded=0;orthogonalLoop=1;jettySize=auto;html=1;exitX=1;exitY=0.5;exitDx=0;exitDy=0;" parent="WIyWlLk6GJQsqaUBKTNV-1" source="dbuAHaYB5niVqohsDz_a-19" edge="1">
          <mxGeometry relative="1" as="geometry">
            <mxPoint x="420" y="990" as="targetPoint" />
            <Array as="points">
              <mxPoint x="520" y="730" />
              <mxPoint x="520" y="990" />
            </Array>
          </mxGeometry>
        </mxCell>
        <mxCell id="dbuAHaYB5niVqohsDz_a-84" value="нет" style="edgeLabel;html=1;align=center;verticalAlign=middle;resizable=0;points=[];" parent="dbuAHaYB5niVqohsDz_a-73" vertex="1" connectable="0">
          <mxGeometry x="-0.7791" y="1" relative="1" as="geometry">
            <mxPoint as="offset" />
          </mxGeometry>
        </mxCell>
        <mxCell id="dbuAHaYB5niVqohsDz_a-19" value="Содержимое &lt;br&gt;ячейки i &amp;gt; содержимого ячейки i+1?" style="rhombus;whiteSpace=wrap;html=1;" parent="WIyWlLk6GJQsqaUBKTNV-1" vertex="1">
          <mxGeometry x="340" y="690" width="160" height="80" as="geometry" />
        </mxCell>
        <mxCell id="dbuAHaYB5niVqohsDz_a-31" style="edgeStyle=orthogonalEdgeStyle;rounded=0;orthogonalLoop=1;jettySize=auto;html=1;exitX=0.5;exitY=1;exitDx=0;exitDy=0;entryX=0.5;entryY=0;entryDx=0;entryDy=0;" parent="WIyWlLk6GJQsqaUBKTNV-1" source="dbuAHaYB5niVqohsDz_a-26" target="dbuAHaYB5niVqohsDz_a-27" edge="1">
          <mxGeometry relative="1" as="geometry" />
        </mxCell>
        <mxCell id="dbuAHaYB5niVqohsDz_a-26" value="Меняем местами содержимое ячеек&lt;br&gt;i и i+1" style="rounded=0;whiteSpace=wrap;html=1;" parent="WIyWlLk6GJQsqaUBKTNV-1" vertex="1">
          <mxGeometry x="360" y="810" width="120" height="60" as="geometry" />
        </mxCell>
        <mxCell id="dbuAHaYB5niVqohsDz_a-32" style="edgeStyle=orthogonalEdgeStyle;rounded=0;orthogonalLoop=1;jettySize=auto;html=1;exitX=0.5;exitY=1;exitDx=0;exitDy=0;entryX=0.5;entryY=0;entryDx=0;entryDy=0;" parent="WIyWlLk6GJQsqaUBKTNV-1" source="dbuAHaYB5niVqohsDz_a-27" target="dbuAHaYB5niVqohsDz_a-28" edge="1">
          <mxGeometry relative="1" as="geometry" />
        </mxCell>
        <mxCell id="dbuAHaYB5niVqohsDz_a-27" value="hasSorted&amp;nbsp;= true" style="rounded=0;whiteSpace=wrap;html=1;" parent="WIyWlLk6GJQsqaUBKTNV-1" vertex="1">
          <mxGeometry x="360" y="910" width="120" height="60" as="geometry" />
        </mxCell>
        <mxCell id="dbuAHaYB5niVqohsDz_a-33" style="edgeStyle=orthogonalEdgeStyle;rounded=0;orthogonalLoop=1;jettySize=auto;html=1;exitX=1;exitY=0.5;exitDx=0;exitDy=0;" parent="WIyWlLk6GJQsqaUBKTNV-1" source="dbuAHaYB5niVqohsDz_a-28" edge="1">
          <mxGeometry relative="1" as="geometry">
            <mxPoint x="420" y="550" as="targetPoint" />
            <Array as="points">
              <mxPoint x="320" y="1040" />
              <mxPoint x="320" y="550" />
              <mxPoint x="420" y="550" />
            </Array>
          </mxGeometry>
        </mxCell>
        <mxCell id="dbuAHaYB5niVqohsDz_a-28" value="инкрементируем&lt;br&gt;i на 1" style="rounded=0;whiteSpace=wrap;html=1;" parent="WIyWlLk6GJQsqaUBKTNV-1" vertex="1">
          <mxGeometry x="360" y="1010" width="120" height="60" as="geometry" />
        </mxCell>
        <mxCell id="dbuAHaYB5niVqohsDz_a-49" style="edgeStyle=orthogonalEdgeStyle;rounded=0;orthogonalLoop=1;jettySize=auto;html=1;exitX=0.5;exitY=1;exitDx=0;exitDy=0;entryX=0.5;entryY=0;entryDx=0;entryDy=0;" parent="WIyWlLk6GJQsqaUBKTNV-1" source="dbuAHaYB5niVqohsDz_a-42" target="dbuAHaYB5niVqohsDz_a-48" edge="1">
          <mxGeometry relative="1" as="geometry" />
        </mxCell>
        <mxCell id="dbuAHaYB5niVqohsDz_a-50" value="нет" style="edgeLabel;html=1;align=center;verticalAlign=middle;resizable=0;points=[];" parent="dbuAHaYB5niVqohsDz_a-49" vertex="1" connectable="0">
          <mxGeometry x="-0.1571" y="-2" relative="1" as="geometry">
            <mxPoint as="offset" />
          </mxGeometry>
        </mxCell>
        <mxCell id="dbuAHaYB5niVqohsDz_a-51" style="edgeStyle=orthogonalEdgeStyle;rounded=0;orthogonalLoop=1;jettySize=auto;html=1;exitX=0;exitY=0.5;exitDx=0;exitDy=0;entryX=0.5;entryY=0;entryDx=0;entryDy=0;" parent="WIyWlLk6GJQsqaUBKTNV-1" source="dbuAHaYB5niVqohsDz_a-42" target="dbuAHaYB5niVqohsDz_a-43" edge="1">
          <mxGeometry relative="1" as="geometry">
            <mxPoint x="420" y="1120" as="targetPoint" />
            <Array as="points">
              <mxPoint x="560" y="190" />
              <mxPoint x="560" y="1120" />
              <mxPoint x="420" y="1120" />
            </Array>
          </mxGeometry>
        </mxCell>
        <mxCell id="dbuAHaYB5niVqohsDz_a-56" value="да" style="edgeLabel;html=1;align=center;verticalAlign=middle;resizable=0;points=[];" parent="dbuAHaYB5niVqohsDz_a-51" vertex="1" connectable="0">
          <mxGeometry x="-0.96" y="-2" relative="1" as="geometry">
            <mxPoint as="offset" />
          </mxGeometry>
        </mxCell>
        <mxCell id="dbuAHaYB5niVqohsDz_a-42" value="hasSorted&amp;nbsp;== false?" style="rhombus;whiteSpace=wrap;html=1;" parent="WIyWlLk6GJQsqaUBKTNV-1" vertex="1">
          <mxGeometry x="630" y="150" width="140" height="80" as="geometry" />
        </mxCell>
        <mxCell id="dbuAHaYB5niVqohsDz_a-43" value="Конец" style="ellipse;whiteSpace=wrap;html=1;" parent="WIyWlLk6GJQsqaUBKTNV-1" vertex="1">
          <mxGeometry x="360" y="1160" width="120" height="80" as="geometry" />
        </mxCell>
        <mxCell id="dbuAHaYB5niVqohsDz_a-67" style="edgeStyle=orthogonalEdgeStyle;rounded=0;orthogonalLoop=1;jettySize=auto;html=1;exitX=0.5;exitY=1;exitDx=0;exitDy=0;entryX=0.5;entryY=0;entryDx=0;entryDy=0;" parent="WIyWlLk6GJQsqaUBKTNV-1" source="dbuAHaYB5niVqohsDz_a-48" target="dbuAHaYB5niVqohsDz_a-58" edge="1">
          <mxGeometry relative="1" as="geometry" />
        </mxCell>
        <mxCell id="dbuAHaYB5niVqohsDz_a-48" value="декрементируем&lt;br&gt;right" style="rounded=0;whiteSpace=wrap;html=1;" parent="WIyWlLk6GJQsqaUBKTNV-1" vertex="1">
          <mxGeometry x="640" y="270" width="120" height="60" as="geometry" />
        </mxCell>
        <mxCell id="dbuAHaYB5niVqohsDz_a-68" style="edgeStyle=orthogonalEdgeStyle;rounded=0;orthogonalLoop=1;jettySize=auto;html=1;exitX=0.5;exitY=1;exitDx=0;exitDy=0;" parent="WIyWlLk6GJQsqaUBKTNV-1" source="dbuAHaYB5niVqohsDz_a-58" target="dbuAHaYB5niVqohsDz_a-59" edge="1">
          <mxGeometry relative="1" as="geometry" />
        </mxCell>
        <mxCell id="dbuAHaYB5niVqohsDz_a-58" value="Создаем переменную j" style="rounded=0;whiteSpace=wrap;html=1;" parent="WIyWlLk6GJQsqaUBKTNV-1" vertex="1">
          <mxGeometry x="640" y="370" width="120" height="60" as="geometry" />
        </mxCell>
        <mxCell id="dbuAHaYB5niVqohsDz_a-69" style="edgeStyle=orthogonalEdgeStyle;rounded=0;orthogonalLoop=1;jettySize=auto;html=1;exitX=0.5;exitY=1;exitDx=0;exitDy=0;entryX=0.5;entryY=0;entryDx=0;entryDy=0;" parent="WIyWlLk6GJQsqaUBKTNV-1" source="dbuAHaYB5niVqohsDz_a-59" target="dbuAHaYB5niVqohsDz_a-60" edge="1">
          <mxGeometry relative="1" as="geometry" />
        </mxCell>
        <mxCell id="dbuAHaYB5niVqohsDz_a-59" value="j = right" style="rounded=0;whiteSpace=wrap;html=1;" parent="WIyWlLk6GJQsqaUBKTNV-1" vertex="1">
          <mxGeometry x="640" y="470" width="120" height="60" as="geometry" />
        </mxCell>
        <mxCell id="dbuAHaYB5niVqohsDz_a-70" style="edgeStyle=orthogonalEdgeStyle;rounded=0;orthogonalLoop=1;jettySize=auto;html=1;exitX=0.5;exitY=1;exitDx=0;exitDy=0;entryX=0.5;entryY=0;entryDx=0;entryDy=0;" parent="WIyWlLk6GJQsqaUBKTNV-1" source="dbuAHaYB5niVqohsDz_a-60" edge="1">
          <mxGeometry relative="1" as="geometry">
            <mxPoint x="700" y="690" as="targetPoint" />
          </mxGeometry>
        </mxCell>
        <mxCell id="dbuAHaYB5niVqohsDz_a-71" value="да" style="edgeLabel;html=1;align=center;verticalAlign=middle;resizable=0;points=[];" parent="dbuAHaYB5niVqohsDz_a-70" vertex="1" connectable="0">
          <mxGeometry x="-0.1414" y="1" relative="1" as="geometry">
            <mxPoint as="offset" />
          </mxGeometry>
        </mxCell>
        <mxCell id="dbuAHaYB5niVqohsDz_a-81" style="edgeStyle=orthogonalEdgeStyle;rounded=0;orthogonalLoop=1;jettySize=auto;html=1;exitX=1;exitY=0.5;exitDx=0;exitDy=0;entryX=0;entryY=0.5;entryDx=0;entryDy=0;" parent="WIyWlLk6GJQsqaUBKTNV-1" source="dbuAHaYB5niVqohsDz_a-60" target="dbuAHaYB5niVqohsDz_a-80" edge="1">
          <mxGeometry relative="1" as="geometry" />
        </mxCell>
        <mxCell id="dbuAHaYB5niVqohsDz_a-82" value="нет" style="edgeLabel;html=1;align=center;verticalAlign=middle;resizable=0;points=[];" parent="dbuAHaYB5niVqohsDz_a-81" vertex="1" connectable="0">
          <mxGeometry x="-0.0208" y="-1" relative="1" as="geometry">
            <mxPoint as="offset" />
          </mxGeometry>
        </mxCell>
        <mxCell id="dbuAHaYB5niVqohsDz_a-60" value="j &amp;gt; left?" style="rhombus;whiteSpace=wrap;html=1;" parent="WIyWlLk6GJQsqaUBKTNV-1" vertex="1">
          <mxGeometry x="640" y="570" width="120" height="80" as="geometry" />
        </mxCell>
        <mxCell id="dbuAHaYB5niVqohsDz_a-72" style="edgeStyle=orthogonalEdgeStyle;rounded=0;orthogonalLoop=1;jettySize=auto;html=1;exitX=0.5;exitY=1;exitDx=0;exitDy=0;entryX=0.5;entryY=0;entryDx=0;entryDy=0;" parent="WIyWlLk6GJQsqaUBKTNV-1" target="dbuAHaYB5niVqohsDz_a-63" edge="1">
          <mxGeometry relative="1" as="geometry">
            <mxPoint x="700" y="770" as="sourcePoint" />
          </mxGeometry>
        </mxCell>
        <mxCell id="dbuAHaYB5niVqohsDz_a-76" value="да" style="edgeLabel;html=1;align=center;verticalAlign=middle;resizable=0;points=[];" parent="dbuAHaYB5niVqohsDz_a-72" vertex="1" connectable="0">
          <mxGeometry x="-0.3138" y="-1" relative="1" as="geometry">
            <mxPoint as="offset" />
          </mxGeometry>
        </mxCell>
        <mxCell id="dbuAHaYB5niVqohsDz_a-85" style="edgeStyle=orthogonalEdgeStyle;rounded=0;orthogonalLoop=1;jettySize=auto;html=1;exitX=1;exitY=0.5;exitDx=0;exitDy=0;" parent="WIyWlLk6GJQsqaUBKTNV-1" source="dbuAHaYB5niVqohsDz_a-62" edge="1">
          <mxGeometry relative="1" as="geometry">
            <mxPoint x="700" y="990" as="targetPoint" />
            <Array as="points">
              <mxPoint x="800" y="730" />
              <mxPoint x="800" y="990" />
            </Array>
          </mxGeometry>
        </mxCell>
        <mxCell id="dbuAHaYB5niVqohsDz_a-86" value="нет" style="edgeLabel;html=1;align=center;verticalAlign=middle;resizable=0;points=[];" parent="dbuAHaYB5niVqohsDz_a-85" vertex="1" connectable="0">
          <mxGeometry x="-0.7391" y="-2" relative="1" as="geometry">
            <mxPoint as="offset" />
          </mxGeometry>
        </mxCell>
        <mxCell id="dbuAHaYB5niVqohsDz_a-62" value="Содержимое &lt;br&gt;ячейки j &amp;lt; содержимого ячейки j-1?" style="rhombus;whiteSpace=wrap;html=1;" parent="WIyWlLk6GJQsqaUBKTNV-1" vertex="1">
          <mxGeometry x="620" y="690" width="160" height="80" as="geometry" />
        </mxCell>
        <mxCell id="dbuAHaYB5niVqohsDz_a-77" style="edgeStyle=orthogonalEdgeStyle;rounded=0;orthogonalLoop=1;jettySize=auto;html=1;exitX=0.5;exitY=1;exitDx=0;exitDy=0;entryX=0.5;entryY=0;entryDx=0;entryDy=0;" parent="WIyWlLk6GJQsqaUBKTNV-1" source="dbuAHaYB5niVqohsDz_a-63" target="dbuAHaYB5niVqohsDz_a-64" edge="1">
          <mxGeometry relative="1" as="geometry" />
        </mxCell>
        <mxCell id="dbuAHaYB5niVqohsDz_a-63" value="Меняем местами содержимое ячеек&lt;br&gt;&amp;nbsp;j и j-1" style="rounded=0;whiteSpace=wrap;html=1;" parent="WIyWlLk6GJQsqaUBKTNV-1" vertex="1">
          <mxGeometry x="640" y="810" width="120" height="60" as="geometry" />
        </mxCell>
        <mxCell id="dbuAHaYB5niVqohsDz_a-78" style="edgeStyle=orthogonalEdgeStyle;rounded=0;orthogonalLoop=1;jettySize=auto;html=1;exitX=0.5;exitY=1;exitDx=0;exitDy=0;entryX=0.5;entryY=0;entryDx=0;entryDy=0;" parent="WIyWlLk6GJQsqaUBKTNV-1" source="dbuAHaYB5niVqohsDz_a-64" target="dbuAHaYB5niVqohsDz_a-65" edge="1">
          <mxGeometry relative="1" as="geometry" />
        </mxCell>
        <mxCell id="dbuAHaYB5niVqohsDz_a-64" value="hasSorted&amp;nbsp;= true" style="rounded=0;whiteSpace=wrap;html=1;" parent="WIyWlLk6GJQsqaUBKTNV-1" vertex="1">
          <mxGeometry x="640" y="910" width="120" height="60" as="geometry" />
        </mxCell>
        <mxCell id="dbuAHaYB5niVqohsDz_a-79" style="edgeStyle=orthogonalEdgeStyle;rounded=0;orthogonalLoop=1;jettySize=auto;html=1;exitX=0;exitY=0.5;exitDx=0;exitDy=0;" parent="WIyWlLk6GJQsqaUBKTNV-1" source="dbuAHaYB5niVqohsDz_a-65" edge="1">
          <mxGeometry relative="1" as="geometry">
            <mxPoint x="700" y="550" as="targetPoint" />
            <Array as="points">
              <mxPoint x="600" y="1040" />
              <mxPoint x="600" y="550" />
            </Array>
          </mxGeometry>
        </mxCell>
        <mxCell id="dbuAHaYB5niVqohsDz_a-65" value="декрементируем&lt;br&gt;&amp;nbsp;j на 1" style="rounded=0;whiteSpace=wrap;html=1;" parent="WIyWlLk6GJQsqaUBKTNV-1" vertex="1">
          <mxGeometry x="640" y="1010" width="120" height="60" as="geometry" />
        </mxCell>
        <mxCell id="dbuAHaYB5niVqohsDz_a-83" style="edgeStyle=orthogonalEdgeStyle;rounded=0;orthogonalLoop=1;jettySize=auto;html=1;exitX=0.5;exitY=0;exitDx=0;exitDy=0;entryX=0.5;entryY=0;entryDx=0;entryDy=0;" parent="WIyWlLk6GJQsqaUBKTNV-1" source="dbuAHaYB5niVqohsDz_a-80" target="dbuAHaYB5niVqohsDz_a-9" edge="1">
          <mxGeometry relative="1" as="geometry">
            <Array as="points">
              <mxPoint x="900" y="80" />
              <mxPoint x="420" y="80" />
            </Array>
          </mxGeometry>
        </mxCell>
        <mxCell id="dbuAHaYB5niVqohsDz_a-80" value="инкрементируем left" style="rounded=0;whiteSpace=wrap;html=1;" parent="WIyWlLk6GJQsqaUBKTNV-1" vertex="1">
          <mxGeometry x="840" y="580" width="120" height="60" as="geometry" />
        </mxCell>
      </root>
    </mxGraphModel>
  </diagram>
</mxfile>
